<?xml version="1.0" standalone="no"?>
<!DOCTYPE svg PUBLIC "-//W3C//DTD SVG 20010904//EN"
 "http://www.w3.org/TR/2001/REC-SVG-20010904/DTD/svg10.dtd">
<svg version="1.0" xmlns="http://www.w3.org/2000/svg"
 width="286.000000pt" height="110.000000pt" viewBox="0 0 286.000000 110.000000"
 preserveAspectRatio="xMidYMid meet">

<g transform="translate(0.000000,110.000000) scale(0.100000,-0.100000)"
fill="#000000" stroke="none">
<path d="M337 973 c-2 -4 -7 -116 -10 -248 l-5 -240 13 245 c8 135 12 246 10
248 -2 2 -5 0 -8 -5z"/>
<path d="M478 785 c-10 -10 12 -78 38 -116 34 -50 93 -81 168 -86 53 -4 68 -1
116 24 62 32 107 88 117 146 4 30 3 37 -11 37 -9 0 -16 -7 -16 -15 0 -24 -35
-87 -62 -112 -32 -30 -90 -53 -135 -53 -78 0 -161 63 -180 139 -9 33 -23 48
-35 36z"/>
<path d="M1269 467 c-31 -24 -41 -55 -27 -85 10 -21 28 -32 75 -47 70 -23 88
-36 80 -59 -11 -29 -55 -38 -108 -23 -41 13 -49 13 -53 0 -9 -22 59 -46 112
-40 72 8 113 64 79 110 -6 10 -41 28 -77 40 -67 23 -84 43 -60 72 14 17 67 20
104 5 22 -8 26 -7 26 9 0 10 -7 22 -16 25 -27 10 -118 6 -135 -7z"/>
<path d="M1470 435 c0 -16 -6 -25 -15 -25 -8 0 -15 -7 -15 -15 0 -8 7 -15 15
-15 12 0 15 -13 15 -60 0 -51 4 -65 25 -85 25 -26 50 -31 74 -16 17 11 6 32
-13 25 -26 -10 -46 25 -46 82 0 53 0 54 30 54 39 0 41 27 3 32 -20 2 -29 9
-31 26 -5 32 -42 30 -42 -3z"/>
<path d="M1646 405 c-42 -22 -55 -44 -55 -90 -1 -83 75 -127 154 -90 60 29 73
104 28 155 -34 38 -85 48 -127 25z m96 -42 c22 -20 23 -70 1 -95 -20 -22 -70
-23 -95 -1 -22 20 -23 70 -1 95 20 22 70 23 95 1z"/>
<path d="M1830 315 c0 -98 1 -105 20 -105 18 0 20 7 20 63 0 69 18 107 51 107
12 0 19 7 19 20 0 24 -9 25 -36 5 -25 -19 -34 -19 -34 0 0 8 -9 15 -20 15 -19
0 -20 -7 -20 -105z"/>
<path d="M2015 411 c-65 -28 -82 -118 -32 -168 22 -23 36 -28 76 -28 48 0 89
21 74 36 -5 5 -24 5 -42 -1 -39 -11 -75 1 -91 30 -10 19 -8 20 76 20 l87 0 -7
33 c-12 61 -86 102 -141 78z m85 -41 c33 -33 24 -40 -45 -40 -36 0 -65 4 -65
9 0 15 51 51 71 51 11 0 28 -9 39 -20z"/>
<path d="M313 335 c0 -27 2 -38 4 -22 2 15 2 37 0 50 -2 12 -4 0 -4 -28z"/>
<path d="M310 130 c0 -5 5 -10 11 -10 5 0 7 5 4 10 -3 6 -8 10 -11 10 -2 0 -4
-4 -4 -10z"/>
</g>
</svg>
